# xmcd
#
# Track frame offsets:
#	150
#	16245
#	36032
#	50897
#	65900
#	82742
#	98337
#	116107
#	136000
#	154915
#	173467
#	191687
#	210990
#	231535
#	248845
#	265380
#	283062
#	303187
#	319247
#	335492
#
# Disc length: 4757
#
# Revision: 5
# Processed by: cddbd v1.5.1PL0 Copyright (c) Steve Scherf et al.
# Submitted via: VisiTrax 2.9.10.228 - For more info visit www.synapsa.com
# Normalized: r4:DSETVAR1
#
DISCID=17129314
DTITLE=Various Artist - Pure Groove - The Classics CD2
DYEAR=2002
DGENRE=80's Soul and Funk
TTITLE0=McFadden and Whitehead - Ain't No Stoppin' Us Now
TTITLE1=Shalamar - There It is
TTITLE2=Shakatak - Down On The Street
TTITLE3=Linx - Intuition
TTITLE4=The Gap Band - Big Fun
TTITLE5=Cashflow - Mine All Mine
TTITLE6=The Dazz Band - Let It All Blow
TTITLE7=Cameo - Single Life
TTITLE8=Loose Ends - Magic Touch
TTITLE9=Midnight Star - Headlines
TTITLE10=Windjammer - Tossing and Turning
TTITLE11=Luther Vandross - Stop To Love
TTITLE12=Skipworth and Turner - Thinking About Your Love
TTITLE13=Evelyn King - I'm In Love
TTITLE14=Surface - Happy
TTITLE15=Kashif - I Just Gotta Have You (Lover Turn Me On)
TTITLE16=Patrice Rushen - Feels So Real (Won't Let Go)
TTITLE17=Glenn Jones - I Am Somebody
TTITLE18=Maze (feat. Frankie Beverly) - Back in Stride
TTITLE19=D Train - Music
EXTD=YEAR: 2002
EXTT0=
EXTT1=
EXTT2=
EXTT3=
EXTT4=
EXTT5=
EXTT6=
EXTT7=
EXTT8=
EXTT9=
EXTT10=
EXTT11=
EXTT12=
EXTT13=
EXTT14=
EXTT15=
EXTT16=
EXTT17=
EXTT18=
EXTT19=
PLAYORDER=
